<svg xmlns="http://www.w3.org/2000/svg" xmlns:xlink="http://www.w3.org/1999/xlink" width="1938" height="783.362" viewBox="0 0 1938 783.362"><defs><filter id="a" x="618.622" y="0" width="422.75" height="653.356" filterUnits="userSpaceOnUse"><feOffset dx="-5" dy="5" input="SourceAlpha"/><feGaussianBlur stdDeviation="3" result="b"/><feFlood flood-color="#161616" flood-opacity="0.349"/><feComposite operator="in" in2="b"/><feComposite in="SourceGraphic"/></filter><linearGradient id="c" x1="0.058" y1="0.6" x2="0.941" y2="0.552" gradientUnits="objectBoundingBox"><stop offset="0" stop-color="#f9eeb1"/><stop offset="0.351" stop-color="#e3c100"/><stop offset="0.793" stop-color="#e3c100"/><stop offset="1" stop-color="#b2990e"/></linearGradient><filter id="d" x="0" y="27.315" width="1421.396" height="431.947" filterUnits="userSpaceOnUse"><feOffset dx="-5" dy="5" input="SourceAlpha"/><feGaussianBlur stdDeviation="3" result="e"/><feFlood flood-color="#161616" flood-opacity="0.349"/><feComposite operator="in" in2="e"/><feComposite in="SourceGraphic"/></filter><linearGradient id="f" x1="-0.195" y1="1.407" x2="1.078" y2="1.359" gradientUnits="objectBoundingBox"><stop offset="0" stop-color="#f9eeb1"/><stop offset="0.489" stop-color="#e3c100"/><stop offset="0.724" stop-color="#e3c100"/><stop offset="1" stop-color="#b2990e"/></linearGradient><filter id="g" x="655.982" y="351.406" width="1282.018" height="431.956" filterUnits="userSpaceOnUse"><feOffset dx="-5" dy="5" input="SourceAlpha"/><feGaussianBlur stdDeviation="3" result="h"/><feFlood flood-color="#161616" flood-opacity="0.349"/><feComposite operator="in" in2="h"/><feComposite in="SourceGraphic"/></filter></defs><g transform="translate(14.004 4.008)"><g transform="matrix(1, 0, 0, 1, -14, -4.01)" filter="url(#a)"><path d="M754.372,635.347q112.993-2.772,199.339-110.155c22.427-28.891,39.842-54.486,51.846-76.517s17.811-33.643,17.811-34.3c0-2.772-1.98-4.352-5.8-4.352-1.188,0-1.584.792-1.584,1.98l-17.415,33.247c-11.211,22.031-27.835,46.438-49.866,73.481C891.178,589.438,826.273,625.72,754.376,626.908c-38.654-1.188-68.469-13.191-88.916-35.618s-31-51.714-31-88.52q0-79.352,66.093-144.854,65.7-66.687,172.424-108.971a5.1,5.1,0,0,0,2.768-4.616c0-2.376-1.584-3.564-5.012-3.564a139.787,139.787,0,0,1-37.994,5.408c-35.09,0-52.9-16.227-52.9-48.286,0-22.823,6.992-45.25,20.447-67.281a264.939,264.939,0,0,1,51.45-60.685,300.6,300.6,0,0,1,66.093-44.062C940.647,14.643,962.282,8.84,981.937,8.048c10.028,0,18.207,2.376,24.407,6.6,5.8,4.22,8.84,10.82,8.84,19.787,0,8.048-1.848,14.247-5.8,17.679-4.22,3.564-8.444,5.408-12.663,5.8-4.352.4-6.992,1.584-8.18,3.168a9.076,9.076,0,0,0-1.98,5.408c0,5.016,2.772,7.652,8.18,7.652a.97.97,0,0,0,.792-.264c.4,0,.4,0,.792-.4.4,0,.792-.4,1.056-.792a6.447,6.447,0,0,1,2.376-1.188c7.784-4.224,13.851-10.424,18.6-19a44.492,44.492,0,0,0,4.62-18.075c0-10.419-3.828-19-11.216-25.2-7.784-6.2-17.811-9.236-29.815-9.236-21.239,0-44.458,5.408-69.525,15.831-25.463,10.82-49.474,25.463-72.3,43.666a248.882,248.882,0,0,0-56.07,63.057c-14.643,23.879-22.031,49.078-22.031,75.329,0,25.067,7.784,40.634,23.219,47.1,15.039,6.6,30.211,10.16,44.458,10.16,3.432,0,5.012,0,5.012.264l-2.64.4q-81.332,32.056-147.357,99.34c-44.062,44.854-66.093,93.932-66.093,147.625,0,28.627,5.8,52.638,17.019,72.293,11.216,19.787,26.651,34.826,47.23,44.854,20.447,10.028,44.062,15.039,71.5,15.435Z" transform="translate(14 4.01)" fill="#fff"/></g><g transform="matrix(1, 0, 0, 1, -14, -4.01)" filter="url(#d)"><path d="M41.895,436.856a43.047,43.047,0,0,1-25.744-8.482C8.563,422.719,4.616,413.79,4.616,401.808c0-17.858,6.549-36.014,19.646-53.872a257.9,257.9,0,0,1,74.933-67.119c29.691-17.858,58.488-28.576,86.17-32.293a442.147,442.147,0,0,1-28.128,85.722c-12.425,28.277-28.35,52.906-48.218,73.889C90.044,427.335,67.8,436.86,41.9,436.86Zm.221,4.39c28.576,0,52.983-9.823,73.442-29.393,20.911-20.762,37.952-45.616,50.824-74.558a395.54,395.54,0,0,0,28.128-89.218,44.505,44.505,0,0,1,17.19,4.169,36.339,36.339,0,0,1,14.213,11.088,27.444,27.444,0,0,1,5.433,17.041c0,3.274,1.49,4.986,4.539,4.986,3.274,0,5.059-1.712,5.059-4.986,0-8.482-2.457-15.256-7.217-20.685-4.611-5.506-10.492-9.376-17.637-12.2a58.578,58.578,0,0,0-20.536-3.943c5.284-28.576,7.886-54.767,7.886-78.279,0-1.712-.894-2.606-2.827-2.606-2.01,0-2.827.669-2.827,2.159-2.9,7-7.886,15.7-15.1,25.744-7.145,10.27-15.848,20.017-25.672,29.84a177.6,177.6,0,0,1-31.624,24.854c-10.939,6.77-21.354,10.045-31.4,10.045-5.876,0-10.713-1.712-14.362-5.208a33.213,33.213,0,0,1-8.333-14.213,68.049,68.049,0,0,1-2.606-19.2c0-23.291,7-49.261,20.762-77.981Q109.978,94.83,139.97,64.73c19.868-20.017,41.448-30.956,64.292-32.889,8.333,0,14.435,2.38,18.752,7.443a25.237,25.237,0,0,1,6.323,16.743c0,11.386-5.208,21.8-15.478,30.73-.6.669-1.265,1.116-1.712,1.563-.894.894-1.712,1.49-2.38,2.159a4.912,4.912,0,0,0-.894,3.274,5.713,5.713,0,0,0,1.563,4.164,5.268,5.268,0,0,0,3.871,1.49c1.563,0,2.827-.818,4.39-2.38l3.722-5.655a69.453,69.453,0,0,0,7.366-14.584,65.739,65.739,0,0,0,4.39-20.762,29.214,29.214,0,0,0-3.5-13.69A27.144,27.144,0,0,0,220.851,31.4c-4.318-2.827-10.045-4.092-16.593-4.092q-39.51,1.565-72.552,34.23a266.52,266.52,0,0,0-54.1,79.77c-12.872,29.167-19.123,55.137-19.123,77.611,0,11.535,3.053,21.133,9.15,28.72,6.1,7.664,14.809,11.833,26.34,12.425,19.868,0,42.044-12.2,66.749-36.832,18.084-18.752,30.062-34,36.163-46.208q-1.673,26.787-10.492,66.744-54.916,6.138-115.116,50.526a286.844,286.844,0,0,0-35.716,32.293,157.371,157.371,0,0,0-25.97,36.163C3.27,375.621,0,388.493,0,401.816c0,13.468,4.39,23.513,13.319,30.062,9.155,6.323,18.752,9.376,28.8,9.376ZM269.294,215.409c2.38,0,4.539-1.341,6.7-3.722a11.019,11.019,0,0,0,3.274-7.588,8.67,8.67,0,0,0-2.38-5.731,6.944,6.944,0,0,0-5.655-2.827c-4.616,1.116-7,5.059-7,11.978,0,5.284,1.788,7.89,5.059,7.89Zm7.813,56.7q24.22,0,69.35-18.305c11.535-4.837,21.354-9.227,29.167-12.872,7.886-3.5,12.2-5.506,12.651-5.88a1.2,1.2,0,0,0,.894-.669,2.811,2.811,0,0,0,.226-1.341c0-1.486-.894-2.159-2.606-2.159l-12.425,5.655c-8.112,3.943-17.858,8.035-29.691,12.872-11.756,4.76-23.738,9.15-35.942,12.872-12.425,3.721-22.921,5.433-31.85,5.433-5.208-.447-9.155-2.159-11.756-5.433a17.517,17.517,0,0,1-3.722-10.939,41.307,41.307,0,0,1,7.217-23.066l.221-1.116a3.05,3.05,0,0,0-1.784-2.606,7.411,7.411,0,0,0-4.092-1.116c-2.457,0-3.943.894-4.837,2.457a39.511,39.511,0,0,0-8.708,24.777c.221,14.213,9.6,21.431,27.681,21.431Zm131.93-32.071a7.011,7.011,0,0,1-2.606-5.88c.221-2.38.447-3.5,1.043-3.5,1.563,0,2.457,1.341,2.457,4.169a15.856,15.856,0,0,1-.894,5.208ZM391.627,260.5c8.261,0,14.584-4.539,19.123-13.468a48.723,48.723,0,0,0,16.819,2.827,405.153,405.153,0,0,0,48.145-3.721c16.372-2.159,30.138-4.616,41.669-7s17.411-4.318,17.411-5.655v-.226c0-1.486-.818-2.38-2.827-2.38-7.145,2.38-20.911,5.208-40.928,8.482a485.758,485.758,0,0,1-63.47,5.88,34.4,34.4,0,0,1-14.809-3.053,20.978,20.978,0,0,0,1.712-7.588c0-5.506-2.159-8.333-6.77-8.333-4.986.447-7.366,3.053-7.366,7.886,0,5.433,2.159,9.155,6.323,11.088a35.921,35.921,0,0,1-6.323,7.664,12.768,12.768,0,0,1-8.708,3.053c-2.231,0-3.943-.669-4.837-2.159a8.4,8.4,0,0,1-1.49-5.059c0-6.1,3.871-12.2,11.535-18.527a3.194,3.194,0,0,0,.894-2.38c0-3.053-1.788-4.611-5.059-4.611-3.721,1.341-7.366,4.39-10.419,9.376a26.07,26.07,0,0,0-4.837,14.66c0,4.539,1.563,7.813,4.39,9.972a15.343,15.343,0,0,0,9.823,3.274Zm158.42,12.872c4.616,0,11.386-3.5,20.315-10.419a133.12,133.12,0,0,0,23.96-24.036c1.341,5.506,5.876,10.045,13.545,14.213a51.891,51.891,0,0,0,25.075,6.1c27.9,0,55.584-6.1,83.044-18.084l11.309-4.837c2.606-1.116,3.943-2.159,3.943-3.274,0-1.486-.894-2.159-2.606-2.159l-14.435,6.1a195.654,195.654,0,0,1-81.256,17.637c-8.929-.226-16.594-2.38-22.7-6.323-6.323-3.871-9.376-8.708-9.376-14.137,0-2.827,1.341-5.433,3.943-8.261a2.53,2.53,0,0,0,.668-1.784,2.187,2.187,0,0,0-.447-1.49c-.447-.221-.894-.221-1.341-.447-.668-.221-1.116-.447-1.712-.669a4.441,4.441,0,0,0-3.274,1.933,26,26,0,0,0-3.053,4.39,17.09,17.09,0,0,0-1.563,4.318,168.946,168.946,0,0,1-24.854,25.523c-8.929,7.443-15.252,11.16-19.2,11.16-2.159,0-4.092-1.563-5.655-4.611a39.68,39.68,0,0,1-3.5-10.866,58.971,58.971,0,0,1-1.265-11.16,68.57,68.57,0,0,1,1.712-13.69c-.221-2.457-2.38-3.721-6.549-3.721-3.5,0-5.655,1.116-6.323,3.274a26.428,26.428,0,0,0-1.043,7,49.541,49.541,0,0,0,3.053,16.074,48.8,48.8,0,0,0,8.261,15.478c3.274,4.611,7.217,6.77,11.309,6.77Zm334.7-42.265-.447.447Q824.142,263.925,786.822,264c-14.809,0-22.176-6.77-22.176-20.464,0-2.827-1.563-4.169-4.837-4.169a3.865,3.865,0,0,0-3.721,2.01,169.667,169.667,0,0,1-16.146,15.252c-4.986,3.871-8.929,5.88-12.2,5.88-2.606-.447-3.871-2.827-3.871-7.217,0-3.5,1.49-7.664,4.318-12.872A57.036,57.036,0,0,1,738.9,228.949c4.318-3.943,8.482-5.953,12.2-5.953,4.76.221,7.217,2.231,7.217,6.1a2.414,2.414,0,0,0,.37,1.341c.447.447.669.669,1.116.669a1.329,1.329,0,0,0,.894.226,5.078,5.078,0,0,0,1.712-.226c.668-.221.894-.669.894-1.784a17.238,17.238,0,0,0-3.053-9.6c-1.933-2.827-5.208-4.092-10.045-4.092-5.88,0-11.309,2.159-16.743,6.549a58.065,58.065,0,0,0-13.319,15.252c-3.5,5.88-5.208,11.088-5.208,15.925.37,9.155,4.539,13.69,12.425,13.69,5.433,0,12.425-3.943,20.911-11.756,4.092-3.943,6.549-6.1,7.366-7,.894,6.549,3.943,11.607,9.155,15.031,5.284,3.721,12.651,5.506,21.8,5.506,26.191,0,59.527-11.386,100.085-33.783l1.116-1.341c0-.669,0-1.116-.221-1.341a1.911,1.911,0,0,0-.894-.818,4.134,4.134,0,0,0-1.933-.447Zm174.421,35.273c2.827-8.261,7.664-18.084,13.988-29.167a6.379,6.379,0,0,0,.818-2.827v-.221c0-2.827-1.712-4.169-5.208-4.169a10.637,10.637,0,0,0-4.837.894l-39.438,15.478c-29.167,10.266-50.747,15.252-64.96,15.252-4.092-.221-7.217-1.712-9.151-4.169a37.878,37.878,0,0,1-4.539-8.482c-1.341-2.827-2.827-5.655-4.39-8.482a20.27,20.27,0,0,0-6.549-7c-2.827-1.712-6.549-2.606-11.309-2.606-5.284,0-12.2,3.5-21.133,10.27a213.432,213.432,0,0,0-23.589,20.464,215.272,215.272,0,0,1,14.584-30.509,5.784,5.784,0,0,0,.894-2.827c0-2.827-1.933-4.39-6.1-4.39-2.827.221-4.76,1.563-6.323,4.39a153.481,153.481,0,0,0-8.929,22.4c-2.827,9-4.39,15.107-4.39,18.378.221,3.053,1.341,4.539,3.5,4.539a5.376,5.376,0,0,0,3.5-1.712,249.145,249.145,0,0,1,26.191-24.633c9.376-7.664,16.521-11.607,21.58-11.607,1.933,0,3.274.669,3.943,2.01.6,1.933,1.265,3.871,1.933,5.88a46.186,46.186,0,0,0,7,15.031c3.645,4.986,11.535,7.443,23.066,7.443,15.7,0,37.952-5.284,66.749-15.478,16.964-5.953,28.129-10.045,33.336-12.425-5.88,12.8-9.6,25-11.088,36.385a14.369,14.369,0,0,0,.37,3.5c.221,1.043,1.341,1.49,3.053,1.49a4.9,4.9,0,0,0,3.274-1.712c3.5-3.943,6.77-7.664,9.6-11.16,9.6-11.088,17.262-19.57,23.142-25.224,5.655-5.506,10.641-8.333,15.252-8.333a4.538,4.538,0,0,1,4.318,2.606,63.945,63.945,0,0,1,2.01,8.112,58.794,58.794,0,0,0,6.549,18.305c3.722,6.323,11.309,9.6,23.291,9.6,15.478,0,37.5-6.1,66.523-18.305,11.088-4.611,20.464-8.78,28.128-12.425,7.588-3.721,11.756-5.731,12.2-5.88.668,0,.818-.221.818-.894v-1.337c0-1.265-1.043-1.933-3.053-1.933-12.2,6.1-24.628,11.756-37.207,17.19a332.432,332.432,0,0,1-36.461,13.545c-11.756,3.722-22.027,5.433-30.956,5.433-4.092-.447-7-2.159-8.929-5.433a50.233,50.233,0,0,1-5.208-11.309,52.506,52.506,0,0,0-7-14.882c-3.053-4.318-8.035-6.7-15.031-7.145-4.611,0-9.376,1.933-14.362,6.1a120.894,120.894,0,0,0-15.329,15.031c-4.986,5.876-9.747,11.309-14.137,16.964Zm341.174-35.273-.447.447q-60.159,32.369-97.479,32.442c-14.809,0-22.176-6.77-22.176-20.464,0-2.827-1.563-4.169-4.837-4.169a3.865,3.865,0,0,0-3.721,2.01,169.675,169.675,0,0,1-16.146,15.252c-4.986,3.871-8.929,5.88-12.2,5.88-2.606-.447-3.871-2.827-3.871-7.217,0-3.5,1.49-7.664,4.318-12.872a57.031,57.031,0,0,1,10.713-13.468c4.318-3.943,8.482-5.953,12.2-5.953,4.76.221,7.217,2.231,7.217,6.1a2.414,2.414,0,0,0,.37,1.341c.447.447.668.669,1.116.669a1.329,1.329,0,0,0,.894.226,5.078,5.078,0,0,0,1.712-.226c.669-.221.894-.669.894-1.784a17.24,17.24,0,0,0-3.053-9.6c-1.933-2.827-5.208-4.092-10.045-4.092-5.88,0-11.309,2.159-16.743,6.549a58.061,58.061,0,0,0-13.319,15.252c-3.5,5.88-5.208,11.088-5.208,15.925.37,9.155,4.539,13.69,12.425,13.69,5.433,0,12.425-3.943,20.911-11.756,4.092-3.943,6.549-6.1,7.366-7,.894,6.549,3.943,11.607,9.155,15.031,5.284,3.721,12.651,5.506,21.8,5.506,26.191,0,59.527-11.386,100.085-33.783l1.116-1.341c0-.669,0-1.116-.221-1.341a1.912,1.912,0,0,0-.894-.818,4.135,4.135,0,0,0-1.933-.447Z" transform="translate(14 4.01)" fill="url(#c)"/></g><g transform="matrix(1, 0, 0, 1, -14, -4.01)" filter="url(#g)"><path d="M782.479,578.35q10.379-32.369,28.273-75.231c6.323-15.478,12.425-30.956,17.935-46.434a435.384,435.384,0,0,0,13.468-44.943,193.936,193.936,0,0,0,5.059-42.486c-.894-11.978-6.1-17.858-15.925-17.858-15.252,0-33.115,13.915-53.872,41.6-26.34,36.832-50.377,78.727-71.509,125.829-21.133,47.328-34,79.323-38.1,96.585,3.274-25.523,11.756-59.527,25-102.239q19.979-64.177,41.222-105.961a4.154,4.154,0,0,0,.894-2.38,9.67,9.67,0,0,0-.447-2.231,3.484,3.484,0,0,0-1.712-1.712,14.8,14.8,0,0,0-2.457-.447,5.387,5.387,0,0,0-5.208,3.5q-17.3,32.031-32.667,78.876a853.16,853.16,0,0,0-25.97,94.651q-10.494,47.775-10.492,79.1c0,2.457,1.341,3.721,3.721,3.721,2.606,0,3.943-1.265,3.943-3.721,0-7.366,2.827-19.8,8.261-37.5,5.433-17.637,13.1-37.654,22.474-60.57,9.376-22.7,19.868-45.761,31.4-69.576a730.8,730.8,0,0,1,36.389-65.556C774.819,403.268,787.022,386.9,799,374.471s22.7-18.752,32.293-18.752c5.88.221,8.708,4.837,8.708,13.54,0,14.809-3.053,31.624-9.155,50.6s-13.545,39.885-22.474,62.729q-14.735,37.613-29.393,82.9c-8.929,28.576-13.319,55.81-13.319,81.924,0,1.788,1.116,2.606,3.053,2.606,2.159,0,3.274-.818,3.274-2.606,0-16.742,4.986-39.659,15.252-69.052a680.322,680.322,0,0,1,38.991-89.44,525.737,525.737,0,0,1,33.408-55.363c11.535-16.521,23.291-29.84,34.826-39.663,11.607-9.823,22.248-14.584,32.518-14.584a9.051,9.051,0,0,1,8.261,4.76c2.01,3.274,2.827,7.664,2.827,13.1,0,10.939-1.712,22.921-4.986,35.942a409.413,409.413,0,0,1-13.319,42.563c-5.655,15.252-11.982,31.4-18.752,48.592q-16.964,42.193-34,92.195-15.29,47.1-15.252,89a109,109,0,0,0,5.059,32.668c3.274,10.492,8.035,19.2,14.362,25.97a5.615,5.615,0,0,0,3.5,1.265c2.827-.221,4.092-1.49,4.092-4.092a4.292,4.292,0,0,0-1.486-3.274c-6.77-5.88-11.756-13.988-15.478-24.036a79.746,79.746,0,0,1-5.433-28.5c0-23.364,4.765-49.112,14.584-77.389,9.6-28.128,20.464-56.925,32.518-85.944q11.382-27.458,20.911-52.978a470.549,470.549,0,0,0,15.478-48.145,170.933,170.933,0,0,0,5.88-42.712c0-8.333-1.788-14.435-5.208-18.084a18.179,18.179,0,0,0-13.545-5.506c-11.088,0-22.474,5.059-34.452,15.031-11.978,10.045-23.738,23.142-35.346,39.514a518.267,518.267,0,0,0-33.336,54.694c-10.641,20.089-20.017,40.553-28.576,61.239-5.655,13.766-9.747,24.628-12.8,33.187Zm176.354-41.222c2.38,0,4.539-1.341,6.7-3.721a11.019,11.019,0,0,0,3.274-7.588,8.669,8.669,0,0,0-2.38-5.731,6.944,6.944,0,0,0-5.655-2.827c-4.616,1.116-7,5.059-7,11.978,0,5.284,1.788,7.89,5.058,7.89Zm7.814,56.7q24.22,0,69.35-18.305c11.535-4.837,21.354-9.227,29.167-12.872,7.886-3.5,12.2-5.506,12.651-5.88a1.2,1.2,0,0,0,.894-.668,2.811,2.811,0,0,0,.226-1.341c0-1.486-.894-2.159-2.606-2.159l-12.425,5.655c-8.112,3.943-17.858,8.035-29.691,12.872-11.756,4.76-23.738,9.15-35.942,12.872-12.425,3.721-22.921,5.433-31.85,5.433-5.208-.447-9.155-2.159-11.756-5.433a17.517,17.517,0,0,1-3.721-10.939A41.308,41.308,0,0,1,958.161,550l.221-1.116a3.05,3.05,0,0,0-1.784-2.606,7.411,7.411,0,0,0-4.092-1.116c-2.457,0-3.943.894-4.837,2.457a39.511,39.511,0,0,0-8.708,24.777c.221,14.213,9.6,21.431,27.681,21.431ZM1193.6,596.88c2.827,0,5.655-1.563,8.78-4.837,3.2-3.053,6.472-7.217,10.419-11.978,13.1-17.19,22.7-25.97,28.8-25.97,2.38,0,3.721.668,3.943,2.01,0,.668,0,1.043.221,1.265a43.169,43.169,0,0,1,.149,4.39,37.316,37.316,0,0,1-.371,4.76c-.221,2.457-.447,4.616-.447,7a41.581,41.581,0,0,0,1.043,8.708,12.952,12.952,0,0,0,4.837,7c2.606,1.933,6.549,3.049,11.756,3.274,7.217,0,15.7-1.712,25.744-5.433a313.519,313.519,0,0,0,29.84-12.2c9.6-4.611,17.637-8.708,24.407-12.2,6.549-3.721,10.045-5.731,10.266-5.88a1.2,1.2,0,0,0,.894-.668,2.448,2.448,0,0,0,.221-1.116,2.864,2.864,0,0,0-.221-1.486,1.735,1.735,0,0,0-1.563-.668h-1.265c-3.274,1.712-5.953,3.053-8.111,4.318-3.5,2.01-7.217,3.943-10.641,5.731-3.5,1.712-8.78,4.318-15.7,7.366a275.5,275.5,0,0,1-29.018,12.2c-9.823,3.721-18.084,5.433-24.854,5.433-3.5,0-5.433-.818-5.655-2.38a20.351,20.351,0,0,1-.894-6.323,33.641,33.641,0,0,1,.226-4.76c.221-2.38.447-5.208.447-8.261,0-11.16-4.986-16.594-15.252-16.594-5.058,0-10.045,2.38-14.584,7.366a88.429,88.429,0,0,0-11.607,12.425c-1.265,1.788-2.827,3.721-4.76,5.953-8.26,11.535-13.988,17.19-17.041,17.19-.221,0-.6-.894-.818-2.606,1.486-27.9,5.876-52.983,12.651-75.231a469.118,469.118,0,0,1,26.34-66.451c13.766-31.177,20.464-47.771,20.464-49.708,0-1.563-.37-2.457-1.265-2.827a8.086,8.086,0,0,0-3.5-1.116c-2.827.221-4.39,1.265-4.986,3.274-1.784,4.986-6.323,15.252-13.766,30.956a491.768,491.768,0,0,1-32.3,56.031,519.524,519.524,0,0,1-38.322,51.641c-13.319,15.478-26.191,28.128-39.067,37.726-12.651,9.376-23.739,14.137-33.562,14.137-8.035,0-11.978-3.87-11.978-11.535a27.557,27.557,0,0,1,.669-5.655c1.265-7.443,3.721-12.872,7.217-16.819,3.2-3.645,6.7-5.655,10.194-5.655a2.026,2.026,0,0,1,1.563.669,1.983,1.983,0,0,1,.669,1.49l-.221,1.116a2.207,2.207,0,0,0,2.159,1.784c1.486,0,2.38-.668,2.38-2.01V550c0-4.39-2.38-6.549-7.217-6.549-5.876,0-11.535,2.827-17.19,8.261-5.876,5.433-9.151,12.872-10.045,22.474,0,12.2,7.217,18.531,21.8,18.752,9.823,0,20.536-3.943,31.85-11.978,11.535-7.886,23.291-18.305,35.12-31.4a401.881,401.881,0,0,0,34.826-43.381c11.16-15.925,17.041-24.186,17.488-25.075-8.929,18.974-15.478,54.694-19.421,107.894,0,5.208,2.827,7.89,8.26,7.89ZM1354.25,559.6c2.827-7.664,7-11.386,12.2-11.386,2.606,0,3.943.668,3.943,2.231,0,3.053-1.712,5.208-5.208,6.7A31.2,31.2,0,0,1,1354.25,559.6Zm13.1,31.995a140.691,140.691,0,0,0,36.385-5.208,339.932,339.932,0,0,0,36.832-11.756c11.607-4.611,20.984-8.482,28.35-11.978,7.443-3.5,11.386-5.506,11.607-5.731a1.076,1.076,0,0,0,.818-.6,2.448,2.448,0,0,0,.221-1.116c0-1.116-.447-1.712-1.043-1.933a6.575,6.575,0,0,0-2.01-.447c-12.872,6.1-25.522,11.535-38.322,16.742a258.531,258.531,0,0,1-37.726,12.651,135.969,135.969,0,0,1-35.12,4.837,14.168,14.168,0,0,1-10.866-4.39c-2.9-2.827-4.169-6.77-4.169-11.531a33.8,33.8,0,0,1,.668-7.217,38.828,38.828,0,0,0,14.584-3.053c4.986-1.933,7.443-5.433,7.443-10.419a5.848,5.848,0,0,0-2.678-5.059,11.1,11.1,0,0,0-5.876-1.712c-7.592.447-13.468,3.5-17.637,8.929a31.25,31.25,0,0,0-6.1,19.2c.894,13.247,8.929,19.8,24.633,19.8Zm119.876-41.149A407.981,407.981,0,0,1,1537.6,449.919q32.7-47.775,62.133-51.045c11.386,0,17.262,5.953,17.488,17.935,0,7.813-4.169,18.752-12.425,32.22a269.839,269.839,0,0,1-33.187,41.895q-41.184,43.2-84.381,59.527Zm7.443,87.8c22.921-2.159,48.593-12.872,76.942-31.773,27.9-18.752,49.7-35.793,65.182-50.824l.221-1.341c0-1.712-.894-2.606-2.827-2.606l-.894.668c-14.809,15.031-36.163,31.85-64.292,50.377-27.9,18.531-52.757,28.946-74.337,31.177-6.1,0-10.862-2.231-13.915-6.323-3.053-4.169-4.611-11.386-4.611-21.58,0-14.213,3.053-30.956,9.376-50.377,31.177-11.16,61.017-31.624,89.367-61.686a269.624,269.624,0,0,0,33.187-41.895c8.482-13.468,13.021-25.3,13.468-35.269-.221-15.031-7.588-22.474-21.8-22.474q-31.028,2.229-61.686,39.885a376.7,376.7,0,0,0-50.973,87.208c-13.766,32.442-20.762,60.792-20.762,85.054,0,20.017,9.376,30.509,28.35,31.773Zm148-87.8a407.98,407.98,0,0,1,50.377-100.528q32.7-47.775,62.133-51.045c11.386,0,17.262,5.953,17.488,17.935,0,7.813-4.169,18.752-12.425,32.22a269.839,269.839,0,0,1-33.187,41.895q-41.184,43.2-84.381,59.527Zm7.443,87.8c22.921-2.159,48.593-12.872,76.942-31.773,27.9-18.752,49.7-35.793,65.182-50.824l.221-1.341c0-1.712-.894-2.606-2.827-2.606l-.894.668c-14.809,15.031-36.163,31.85-64.292,50.377-27.9,18.531-52.757,28.946-74.337,31.177-6.1,0-10.862-2.231-13.915-6.323-3.053-4.169-4.611-11.386-4.611-21.58,0-14.213,3.053-30.956,9.376-50.377,31.177-11.16,61.017-31.624,89.367-61.686a269.632,269.632,0,0,0,33.187-41.895c8.482-13.468,13.021-25.3,13.468-35.269-.221-15.031-7.588-22.474-21.8-22.474q-31.028,2.229-61.686,39.885a376.7,376.7,0,0,0-50.973,87.208c-13.766,32.442-20.762,60.792-20.762,85.054,0,20.017,9.376,30.509,28.35,31.773ZM1792.685,559.6c2.827-7.664,7-11.386,12.2-11.386,2.606,0,3.943.669,3.943,2.231,0,3.053-1.712,5.208-5.208,6.7A31.2,31.2,0,0,1,1792.685,559.6Zm13.1,31.995a140.692,140.692,0,0,0,36.385-5.208A339.929,339.929,0,0,0,1879,574.628c11.607-4.611,20.983-8.482,28.35-11.978,7.443-3.5,11.386-5.506,11.607-5.731a1.077,1.077,0,0,0,.818-.6,2.448,2.448,0,0,0,.221-1.116c0-1.116-.447-1.712-1.043-1.933a6.575,6.575,0,0,0-2.01-.447c-12.872,6.1-25.523,11.535-38.322,16.743a258.543,258.543,0,0,1-37.726,12.651,135.971,135.971,0,0,1-35.12,4.837,14.169,14.169,0,0,1-10.866-4.39c-2.9-2.827-4.169-6.77-4.169-11.531a33.8,33.8,0,0,1,.668-7.217,38.828,38.828,0,0,0,14.584-3.053c4.986-1.933,7.443-5.433,7.443-10.419a5.847,5.847,0,0,0-2.678-5.059,11.1,11.1,0,0,0-5.876-1.712c-7.592.447-13.468,3.5-17.637,8.929a31.25,31.25,0,0,0-6.1,19.2c.894,13.247,8.929,19.8,24.633,19.8Z" transform="translate(14 4.01)" fill="url(#f)"/></g></g></svg>