<svg xmlns="http://www.w3.org/2000/svg" xmlns:xlink="http://www.w3.org/1999/xlink" viewBox="0 0 4.19 4.19"><defs><style>.cls-1{fill:url(#linear-gradient);}.cls-2{fill:#fff;fill-rule:evenodd;}</style><linearGradient id="linear-gradient" x1="2.05" y1="-1.67" x2="2.13" y2="4.9" gradientUnits="userSpaceOnUse"><stop offset="0.13" stop-color="#01cf2d"/><stop offset="0.79" stop-color="#009804"/></linearGradient></defs><g id="Camada_2" data-name="Camada 2"><g id="Layer_1" data-name="Layer 1"><path class="cls-1" d="M4.19,2.09A2.1,2.1,0,1,1,2.09,0,2.1,2.1,0,0,1,4.19,2.09Z"/><path class="cls-2" d="M3.34,1.8a1.28,1.28,0,0,0-1.25-1,1.05,1.05,0,0,0-.24,0A1.26,1.26,0,0,0,1,2.69a.15.15,0,0,1,0,.07c-.06.19-.11.39-.17.59,0,0,0,0,0,0l.61-.16h.05A1.28,1.28,0,0,0,3.34,1.8ZM2.27,3.13a.36.36,0,0,1-.14,0A1.18,1.18,0,0,1,1.55,3a.07.07,0,0,0-.06,0l-.34.09s0,0,0,0,.05-.21.09-.32a.12.12,0,0,0,0-.08,1,1,0,0,1,0-1.18,1,1,0,0,1,1.08-.42,1,1,0,0,1,.81.81A1,1,0,0,1,2.27,3.13Z"/><path class="cls-2" d="M2.43,2.69a.19.19,0,0,1-.13,0,1.21,1.21,0,0,1-.69-.5.71.71,0,0,1-.15-.3.34.34,0,0,1,.11-.34.21.21,0,0,1,.17,0s0,0,0,0,.08.17.11.26a0,0,0,0,1,0,.05A.76.76,0,0,1,1.8,2s0,0,0,.07a.88.88,0,0,0,.44.37s0,0,.06,0l.1-.11s0,0,.07,0l.18.08,0,0c.07,0,.07,0,.06.11a.27.27,0,0,1-.23.23A.11.11,0,0,1,2.43,2.69Z"/></g></g></svg>